# xmcd
# 
# Track frame offsets:
#     150
#     18795
#     35792
#     56622
#     78305
#     94405
#     111207
#     127467
#     147425
#     163505
#     186170
# 
# Disc length: 2692
# 
# Revision: 0
# Processed by: cddbd v1.5.2PL0 Copyright (c) Steve Scherf et al.
# Submitted via: fre:ac v1.0.17
# 
DISCID=9c0a820b
DTITLE=Mark Selby - More Storms Comin'
DYEAR=2000
DGENRE=Blues
TTITLE0=Don't You Throw That Mojo On Me
TTITLE1=She's Like Mercury
TTITLE2=I'm The Lucky One
TTITLE3=You're Gonna Miss My Love
TTITLE4=Blind Since Birth
TTITLE5=What Am I Doin'
TTITLE6=Kink In The Chain
TTITLE7=Down By The Tracks
TTITLE8=Smoked
TTITLE9=Satisfied
TTITLE10=More Storms Comin'
EXTD=
EXTT0=
EXTT1=
EXTT2=
EXTT3=
EXTT4=
EXTT5=
EXTT6=
EXTT7=
EXTT8=
EXTT9=
EXTT10=
PLAYORDER=
